<?xml version="1.0" standalone="no"?>
<!DOCTYPE svg PUBLIC "-//W3C//DTD SVG 20010904//EN"
 "http://www.w3.org/TR/2001/REC-SVG-20010904/DTD/svg10.dtd">
<svg version="1.0" xmlns="http://www.w3.org/2000/svg"
 width="512.000000pt" height="512.000000pt" viewBox="0 0 512.000000 512.000000"
 preserveAspectRatio="xMidYMid meet">
<metadata>
Created by potrace 1.14, written by Peter Selinger 2001-2017
</metadata>
<g transform="translate(0.000000,512.000000) scale(0.100000,-0.100000)"
fill="#000000" stroke="none">
<path d="M1815 4118 c-39 -23 -44 -39 -44 -173 0 -71 0 -148 -1 -170 l0 -40
-178 -1 c-166 -1 -180 -3 -232 -26 -65 -29 -123 -85 -153 -148 l-22 -45 0
-1135 c0 -745 -3 -1138 -10 -1142 -6 -5 -5 -8 3 -8 6 0 12 -9 12 -19 0 -29 41
-101 80 -141 34 -34 91 -67 135 -79 11 -3 535 -6 1165 -6 1105 0 1146 1 1185
19 59 28 99 62 130 107 27 42 61 137 51 146 -3 3 -1 13 4 23 5 10 7 20 4 23
-9 8 -7 2155 2 2168 4 8 3 9 -4 5 -8 -5 -12 2 -12 19 0 70 -83 175 -169 215
-50 23 -63 24 -232 25 l-179 0 -1 25 c0 14 0 85 1 158 0 158 -4 178 -41 197
-35 19 -275 21 -313 4 -36 -17 -47 -62 -46 -181 3 -203 3 -206 -22 -204 -13 0
-26 6 -30 11 -5 7 -8 7 -8 0 0 -13 -299 -13 -319 -1 -8 6 -12 5 -8 0 6 -10
-378 -13 -388 -3 -3 3 -6 81 -6 172 -2 162 -2 168 -26 191 -23 23 -30 24 -166
25 -92 0 -149 -3 -162 -11z m1817 -977 c4 -1 8 -295 7 -654 0 -359 0 -657 1
-662 2 -6 2 -14 1 -20 -1 -5 -2 -121 -2 -256 1 -192 -2 -249 -12 -258 -12 -9
-39 -11 -132 -11 -31 1 -308 1 -325 1 -8 0 -80 0 -160 0 -80 0 -149 0 -155 0
-10 0 -496 -1 -527 -1 -10 0 -119 0 -243 0 -124 0 -231 0 -237 0 -7 0 -73 -1
-146 -2 -72 -2 -132 -1 -132 2 0 3 -17 4 -39 2 -34 -3 -39 -1 -45 22 -3 14 -6
177 -5 363 0 186 0 343 -1 348 -1 6 -2 15 -1 20 1 6 1 219 1 475 -1 256 -1
472 -1 480 1 8 1 47 0 85 l0 70 1073 -2 c590 0 1076 -2 1080 -2z"/>
</g>
</svg>
